<svg xmlns="http://www.w3.org/2000/svg" xmlns:xlink="http://www.w3.org/1999/xlink" id="visual" viewBox="0 0 900 600" width="900" height="600" version="1.1"><rect x="0" y="0" width="900" height="600" fill="#f29555"/><defs fill="#000000"><linearGradient id="grad1_0" x1="33.3%" y1="0%" x2="100%" y2="100%" fill="#000000"><stop offset="20%" stop-color="#f29555" stop-opacity="1" fill="#000000"/><stop offset="80%" stop-color="#f29555" stop-opacity="1" fill="#000000"/></linearGradient></defs><defs fill="#000000"><linearGradient id="grad2_0" x1="0%" y1="0%" x2="66.7%" y2="100%" fill="#000000"><stop offset="20%" stop-color="#f29555" stop-opacity="1" fill="#000000"/><stop offset="80%" stop-color="#f29555" stop-opacity="1" fill="#000000"/></linearGradient></defs><g transform="translate(900, 0)"><path d="M0 540.8C-44.1 463.1 -88.2 385.3 -150.4 363.1C-212.6 340.9 -293 374.3 -357.8 357.8C-422.6 341.3 -471.8 274.9 -499.7 207C-527.6 139 -534.2 69.5 -540.8 0L0 0Z" fill="#1e1f22"/></g><g transform="translate(0, 600)"><path d="M0 -540.8C74.4 -537.2 148.7 -533.6 207 -499.7C265.2 -465.7 307.3 -401.5 345.8 -345.8C384.2 -290.1 419 -243 450.9 -186.7C482.7 -130.5 511.8 -65.3 540.8 0L0 0Z" fill="#1e1f22"/></g></svg>