<svg id="visual" viewBox="0 0 900 600" width="900" height="600" xmlns="http://www.w3.org/2000/svg" xmlns:xlink="http://www.w3.org/1999/xlink" version="1.1"><rect x="0" y="0" width="900" height="600" fill="#1e1f22"></rect><defs><linearGradient id="grad1_0" x1="33.3%" y1="100%" x2="100%" y2="0%"><stop offset="20%" stop-color="#1e1f22" stop-opacity="1"></stop><stop offset="80%" stop-color="#1e1f22" stop-opacity="1"></stop></linearGradient></defs><defs><linearGradient id="grad2_0" x1="0%" y1="100%" x2="66.7%" y2="0%"><stop offset="20%" stop-color="#1e1f22" stop-opacity="1"></stop><stop offset="80%" stop-color="#1e1f22" stop-opacity="1"></stop></linearGradient></defs><g transform="translate(900, 600)"><path d="M-216.3 0C-208.6 -27.5 -200.9 -54.9 -188.5 -78.1C-176 -101.2 -158.8 -120 -141.4 -141.4C-124 -162.9 -106.4 -186.9 -82.8 -199.9C-59.2 -212.8 -29.6 -214.6 0 -216.3L0 0Z" fill="#AA0C18"></path></g><g transform="translate(0, 0)"><path d="M216.3 0C205.8 25 195.3 50.1 186.6 77.3C177.9 104.5 171 134 153 153C134.9 172 105.8 180.6 78.5 189.4C51.1 198.2 25.6 207.3 0 216.3L0 0Z" fill="#AA0C18"></path></g></svg>